<svg xmlns="http://www.w3.org/2000/svg" width="66" height="66" viewBox="0 0 66 66" fill="none">
<path d="M49.5 27.4995C49.5 26.7702 49.2103 26.0707 48.6946 25.555C48.1788 25.0393 47.4794 24.7495 46.75 24.7495H14.8775L21.2025 18.452C21.7204 17.9342 22.0113 17.2319 22.0113 16.4995C22.0113 15.7672 21.7204 15.0649 21.2025 14.547C20.6847 14.0292 19.9823 13.7383 19.25 13.7383C18.5177 13.7383 17.8154 14.0292 17.2975 14.547L6.29752 25.547C5.91593 25.9338 5.65744 26.4248 5.55467 26.9583C5.45189 27.4918 5.50942 28.0437 5.72002 28.5445C5.92632 29.0467 6.27667 29.4766 6.7269 29.7801C7.17713 30.0835 7.7071 30.2468 8.25002 30.2495H46.75C47.4794 30.2495 48.1788 29.9598 48.6946 29.4441C49.2103 28.9284 49.5 28.2289 49.5 27.4995ZM60.28 37.4545C60.0737 36.9523 59.7234 36.5224 59.2731 36.219C58.8229 35.9156 58.2929 35.7522 57.75 35.7495H19.25C18.5207 35.7495 17.8212 36.0393 17.3055 36.555C16.7897 37.0707 16.5 37.7702 16.5 38.4995C16.5 39.2289 16.7897 39.9284 17.3055 40.4441C17.8212 40.9598 18.5207 41.2495 19.25 41.2495H51.1225L44.7975 47.547C44.5398 47.8027 44.3352 48.1068 44.1956 48.4419C44.0559 48.7771 43.9841 49.1365 43.9841 49.4995C43.9841 49.8626 44.0559 50.222 44.1956 50.5571C44.3352 50.8922 44.5398 51.1964 44.7975 51.452C45.0532 51.7098 45.3573 51.9144 45.6924 52.054C46.0275 52.1936 46.387 52.2655 46.75 52.2655C47.113 52.2655 47.4725 52.1936 47.8076 52.054C48.1427 51.9144 48.4469 51.7098 48.7025 51.452L59.7025 40.452C60.0841 40.0653 60.3426 39.5742 60.4454 39.0408C60.5481 38.5073 60.4906 37.9553 60.28 37.4545V37.4545Z" fill="#C69C6D"/>
</svg>
